<?xml version="1.0" standalone="no"?>
<!DOCTYPE svg PUBLIC "-//W3C//DTD SVG 20010904//EN"
 "http://www.w3.org/TR/2001/REC-SVG-20010904/DTD/svg10.dtd">
<svg version="1.0" xmlns="http://www.w3.org/2000/svg"
 width="700.000000pt" height="700.000000pt" viewBox="0 0 700.000000 700.000000"
 preserveAspectRatio="xMidYMid meet">
<metadata>
Created by potrace 1.11, written by Peter Selinger 2001-2013
</metadata>
<g transform="translate(0.000000,700.000000) scale(0.100000,-0.100000)"
fill="#000000" stroke="none">
<path d="M3477 6114 c-1 -1 -54 -4 -117 -7 -63 -4 -124 -8 -135 -10 -11 -3
-47 -8 -80 -12 -32 -4 -67 -8 -76 -10 -9 -2 -32 -6 -50 -9 -161 -25 -459 -124
-649 -213 -78 -37 -284 -155 -288 -165 -2 -4 -8 -8 -14 -8 -22 0 -233 -161
-353 -270 -272 -247 -510 -577 -649 -900 -15 -36 -34 -80 -42 -98 -56 -123
-141 -445 -163 -617 -15 -113 -22 -205 -15 -205 5 0 132 -33 444 -116 69 -18
235 -62 370 -99 135 -36 355 -96 490 -132 135 -36 313 -84 395 -106 191 -53
223 -53 295 -6 76 51 143 83 230 112 128 43 187 52 340 51 155 0 254 -19 380
-70 212 -86 399 -248 505 -438 68 -122 147 -338 129 -355 -2 -3 -50 8 -107 23
-56 15 -113 29 -127 32 -14 2 -32 7 -40 10 -15 6 -151 43 -180 49 -8 2 -58 15
-110 30 -132 37 -248 65 -267 65 -49 0 -107 -53 -118 -108 -4 -22 -78 -296
-116 -433 -16 -59 -30 -122 -31 -141 -1 -44 26 -91 66 -110 17 -9 137 -44 266
-78 416 -110 535 -142 542 -149 9 -8 -69 -92 -142 -152 -107 -87 -189 -134
-315 -177 -137 -46 -170 -52 -330 -55 -283 -6 -543 100 -747 306 -67 68 -155
192 -190 267 -25 52 -56 77 -121 95 -31 8 -83 22 -115 30 -31 9 -149 41 -262
72 -113 30 -252 68 -310 83 -58 15 -157 42 -220 59 -281 75 -335 89 -337 87
-7 -6 153 -285 189 -331 4 -5 40 -53 79 -105 93 -123 113 -146 223 -258 246
-253 529 -449 852 -590 152 -67 392 -142 527 -166 15 -3 35 -7 45 -10 17 -6
32 -8 132 -21 30 -3 69 -9 85 -12 61 -10 453 -12 535 -3 96 11 145 18 180 25
13 3 41 7 61 10 184 28 484 128 697 233 376 186 671 432 966 802 21 27 150
222 174 264 88 154 214 447 248 575 2 9 16 59 29 111 14 52 28 106 30 120 2
14 11 66 20 115 8 50 18 126 21 171 l6 80 -383 103 c-211 57 -431 116 -489
131 -58 16 -251 68 -430 115 -179 48 -383 102 -454 122 -79 22 -141 33 -160
30 -17 -3 -65 -26 -106 -51 -86 -53 -225 -109 -325 -131 -99 -22 -292 -27
-390 -9 -281 50 -527 210 -681 441 -51 75 -124 225 -124 253 0 6 -5 8 -12 4
-6 -4 -8 -3 -4 4 3 5 -1 42 -11 81 -9 39 -14 73 -11 76 3 3 25 -1 49 -9 24 -8
107 -30 184 -50 77 -20 174 -45 215 -57 165 -45 188 -51 277 -74 50 -13 100
-22 110 -20 10 2 23 4 30 4 40 3 89 95 109 207 2 13 8 34 13 46 5 13 9 26 9
31 0 4 7 31 16 60 8 28 31 116 51 194 32 124 35 147 25 178 -23 70 -13 66
-595 220 -146 38 -246 66 -265 73 -19 7 -15 14 52 81 142 143 291 228 493 282
93 25 316 35 404 18 340 -65 594 -247 756 -543 24 -44 53 -86 63 -93 10 -6 70
-25 133 -42 63 -17 130 -36 149 -41 31 -9 492 -132 785 -210 61 -16 142 -38
181 -48 l72 -19 -33 61 c-139 261 -281 453 -489 661 -149 148 -239 222 -419
342 -326 218 -727 370 -1102 419 -27 3 -59 8 -70 10 -26 5 -353 21 -358 18z"/>
</g>
</svg>
