<svg version="1.0" xmlns="http://www.w3.org/2000/svg" width="933.333" height="933.333" viewBox="0 0 700 700"><path d="M347.7 88.6c-.1.1-5.4.4-11.7.7-6.3.4-12.4.8-13.5 1-1.1.3-4.7.8-8 1.2-3.2.4-6.7.8-7.6 1-.9.2-3.2.6-5 .9-16.1 2.5-45.9 12.4-64.9 21.3-7.8 3.7-28.4 15.5-28.8 16.5-.2.4-.8.8-1.4.8-2.2 0-23.3 16.1-35.3 27-27.2 24.7-51 57.7-64.9 90-1.5 3.6-3.4 8-4.2 9.8-5.6 12.3-14.1 44.5-16.3 61.7-1.5 11.3-2.2 20.5-1.5 20.5.5 0 13.2 3.3 44.4 11.6 6.9 1.8 23.5 6.2 37 9.9 13.5 3.6 35.5 9.6 49 13.2 13.5 3.6 31.3 8.4 39.5 10.6 19.1 5.3 22.3 5.3 29.5.6 7.6-5.1 14.3-8.3 23-11.2 12.8-4.3 18.7-5.2 34-5.1 15.5 0 25.4 1.9 38 7 21.2 8.6 39.9 24.8 50.5 43.8 6.8 12.2 14.7 33.8 12.9 35.5-.2.3-5-.8-10.7-2.3-5.6-1.5-11.3-2.9-12.7-3.2-1.4-.2-3.2-.7-4-1-1.5-.6-15.1-4.3-18-4.9-.8-.2-5.8-1.5-11-3-13.2-3.7-24.8-6.5-26.7-6.5-4.9 0-10.7 5.3-11.8 10.8-.4 2.2-7.8 29.6-11.6 43.3-1.6 5.9-3 12.2-3.1 14.1-.1 4.4 2.6 9.1 6.6 11 1.7.9 13.7 4.4 26.6 7.8 41.6 11 53.5 14.2 54.2 14.9.9.8-6.9 9.2-14.2 15.2-10.7 8.7-18.9 13.4-31.5 17.7-13.7 4.6-17 5.2-33 5.5-28.3.6-54.3-10-74.7-30.6-6.7-6.8-15.5-19.2-19-26.7-2.5-5.2-5.6-7.7-12.1-9.5-3.1-.8-8.3-2.2-11.5-3-3.1-.9-14.9-4.1-26.2-7.2-11.3-3-25.2-6.8-31-8.3-5.8-1.5-15.7-4.2-22-5.9-28.1-7.5-33.5-8.9-33.7-8.7-.7.6 15.3 28.5 18.9 33.1.4.5 4 5.3 7.9 10.5 9.3 12.3 11.3 14.6 22.3 25.8 24.6 25.3 52.9 44.9 85.2 59 15.2 6.7 39.2 14.2 52.7 16.6 1.5.3 3.5.7 4.5 1 1.7.6 3.2.8 13.2 2.1 3 .3 6.9.9 8.5 1.2 6.1 1 45.3 1.2 53.5.3 9.6-1.1 14.5-1.8 18-2.5 1.3-.3 4.1-.7 6.1-1 18.4-2.8 48.4-12.8 69.7-23.3 37.6-18.6 67.1-43.2 96.6-80.2 2.1-2.7 15-22.2 17.4-26.4 8.8-15.4 21.4-44.7 24.8-57.5.2-.9 1.6-5.9 2.9-11.1 1.4-5.2 2.8-10.6 3-12 .2-1.4 1.1-6.6 2-11.5.8-5 1.8-12.6 2.1-17.1l.6-8-38.3-10.3c-21.1-5.7-43.1-11.6-48.9-13.1-5.8-1.6-25.1-6.8-43-11.5-17.9-4.8-38.3-10.2-45.4-12.2-7.9-2.2-14.1-3.3-16-3-1.7.3-6.5 2.6-10.6 5.1-8.6 5.3-22.5 10.9-32.5 13.1-9.9 2.2-29.2 2.7-39 .9-28.1-5-52.7-21-68.1-44.1-5.1-7.5-12.4-22.5-12.4-25.3 0-.6-.5-.8-1.2-.4-.6.4-.8.3-.4-.4.3-.5-.1-4.2-1.1-8.1-.9-3.9-1.4-7.3-1.1-7.6.3-.3 2.5.1 4.9.9 2.4.8 10.7 3 18.4 5 7.7 2 17.4 4.5 21.5 5.7 16.5 4.5 18.8 5.1 27.7 7.4 5 1.3 10 2.2 11 2 1-.2 2.3-.4 3-.4 4-.3 8.9-9.5 10.9-20.7.2-1.3.8-3.4 1.3-4.6.5-1.3.9-2.6.9-3.1 0-.4.7-3.1 1.6-6 .8-2.8 3.1-11.6 5.1-19.4 3.2-12.4 3.5-14.7 2.5-17.8-2.3-7-1.3-6.6-59.5-22-14.6-3.8-24.6-6.6-26.5-7.3-1.9-.7-1.5-1.4 5.2-8.1 14.2-14.3 29.1-22.8 49.3-28.2 9.3-2.5 31.6-3.5 40.4-1.8 34 6.5 59.4 24.7 75.6 54.3 2.4 4.4 5.3 8.6 6.3 9.3 1 .6 7 2.5 13.3 4.2 6.3 1.7 13 3.6 14.9 4.1 3.1.9 49.2 13.2 78.5 21 6.1 1.6 14.2 3.8 18.1 4.8l7.2 1.9-3.3-6.1c-13.9-26.1-28.1-45.3-48.9-66.1-14.9-14.8-23.9-22.2-41.9-34.2-32.6-21.8-72.7-37-110.2-41.9-2.7-.3-5.9-.8-7-1-2.6-.5-35.3-2.1-35.8-1.8z"/></svg>