<svg width="361" height="402" viewBox="0 0 361 402" fill="none" xmlns="http://www.w3.org/2000/svg">
<path d="M343.793 104.51C353.791 104.772 361.739 113.098 360.885 123.062C357.643 160.861 347.372 197.779 330.546 231.899C311.046 271.44 283.205 306.284 248.942 334.03C214.679 361.776 174.807 381.763 132.075 392.616C89.3433 403.468 44.7665 404.927 1.41629 396.892C-41.9339 388.858 -83.0269 371.52 -119.031 346.074C-155.036 320.629 -185.095 287.68 -207.139 249.498C-229.183 211.316 -242.687 168.808 -246.721 124.905C-250.201 87.0209 -246.559 48.8746 -236.039 12.4248C-233.266 2.81601 -222.862 -2.1082 -213.435 1.23032C-204.007 4.56883 -199.134 14.905 -201.831 24.5357C-210.648 56.0305 -213.657 88.9217 -210.656 121.591C-207.101 160.282 -195.201 197.741 -175.774 231.389C-156.348 265.038 -129.858 294.074 -98.1286 316.498C-66.3996 338.922 -30.1861 354.201 8.01651 361.282C46.2191 368.363 85.5028 367.077 123.161 357.513C160.818 347.95 195.955 330.335 226.15 305.884C256.345 281.433 280.88 250.727 298.064 215.88C312.574 186.456 321.553 154.672 324.608 122.109C325.542 112.151 333.796 104.248 343.793 104.51Z" fill="#AF1A1A"/>
</svg>
