<svg width="524" height="62" viewBox="0 0 524 62" fill="none" xmlns="http://www.w3.org/2000/svg"><path d="M16.176 50.36c1.11 0 2.048-.384 2.816-1.152.81-.81 1.238-1.77 1.28-2.88v-35.52c-.042-1.11-.47-2.048-1.28-2.816-.768-.768-1.706-1.152-2.816-1.152h-.832V6.2H34.8l-.064.64h-.768c-1.11 0-2.07.384-2.88 1.152-.81.768-1.216 1.707-1.216 2.816v35.52c0 1.11.406 2.07 1.216 2.88.81.768 1.77 1.152 2.88 1.152h.768l.064.64H15.344v-.64h.832zM55.08 15.224h-2.047v31.744c0 1.024.341 1.856 1.024 2.496.725.597 1.536.896 2.432.896h.704V51h-17.6v-.64h.768c.938 0 1.728-.32 2.368-.96.682-.64 1.024-1.43 1.024-2.368V16.568c0-.939-.342-1.728-1.024-2.368-.64-.64-1.408-.96-2.304-.96h-.832v-.64H59.24c3.84 0 7.061.747 9.664 2.24 2.901 1.664 4.352 4.416 4.352 8.256 0 2.475-.747 4.715-2.24 6.72-1.494 1.963-3.712 3.157-6.656 3.584 1.152.384 2.282 1.11 3.392 2.176 1.152 1.067 2.07 2.155 2.752 3.264a67.36 67.36 0 004.288 6.72c1.493 2.005 2.688 3.307 3.584 3.904.938.597 2.07.896 3.392.896V51h-5.376c-3.542 0-6.272-.427-8.192-1.28-1.878-.853-3.563-2.475-5.056-4.864-2.304-3.67-3.734-6.57-4.288-8.704-.512-1.28-1.13-2.24-1.856-2.88-.683-.64-1.344-1.003-1.984-1.088v-.512h1.6c3.626-.043 5.845-2.176 6.656-6.4.17-.64.256-1.195.256-1.664 0-.47-.022-1.11-.064-1.92-.043-.853-.32-1.792-.832-2.816-.47-1.067-1.088-1.835-1.856-2.304-1.323-.81-2.688-1.237-4.096-1.28a17.836 17.836 0 00-1.6-.064z" fill="#AF1A1A"/><path fill-rule="evenodd" clip-rule="evenodd" d="M127.032 33.268c-.811 12.43-11.164 22.273-23.795 22.273-9.41 0-17.55-5.461-21.428-13.383l11.332 3.037a1.1 1.1 0 01.715.604 9.136 9.136 0 005.929 4.975 9.178 9.178 0 009.546-3.14l-7.059-1.89a1.1 1.1 0 01-.778-1.348l1.332-4.961a1.1 1.1 0 011.347-.779l7.058 1.892a8.112 8.112 0 00-.356-1.45 30.361 30.361 0 0016.157-5.83z" fill="#1446A0"/><path fill-rule="evenodd" clip-rule="evenodd" d="M95.597 24.322a9.117 9.117 0 006.335 6.023 9.15 9.15 0 007.624-1.342 1.1 1.1 0 01.921-.164c2.832.757 16.531 4.428 16.531 4.428a30.28 30.28 0 01-16.15 5.824 9.116 9.116 0 00-6.336-6.023 9.15 9.15 0 00-7.623 1.341c-.268.19-.602.25-.917.165-2.836-.757-16.535-4.428-16.535-4.428a30.273 30.273 0 0116.15-5.824z" fill="#fff"/><path fill-rule="evenodd" clip-rule="evenodd" d="M95.596 24.322a9.117 9.117 0 006.336 6.023 9.15 9.15 0 007.624-1.342c.267-.188.601-.249.92-.164 2.833.757 16.531 4.428 16.531 4.428a30.274 30.274 0 01-16.149 5.824 9.116 9.116 0 00-6.336-6.023 9.15 9.15 0 00-7.623 1.341c-.268.19-.602.25-.917.165-2.836-.757-16.535-4.428-16.535-4.428a30.273 30.273 0 0116.15-5.824z" fill="#fff"/><path fill-rule="evenodd" clip-rule="evenodd" d="M95.596 24.322a9.117 9.117 0 006.336 6.023 9.15 9.15 0 007.624-1.342c.267-.188.601-.249.92-.164 2.833.757 16.531 4.428 16.531 4.428a30.274 30.274 0 01-16.149 5.824 9.116 9.116 0 00-6.336-6.023 9.15 9.15 0 00-7.623 1.341c-.268.19-.602.25-.917.165-2.836-.757-16.535-4.428-16.535-4.428a30.273 30.273 0 0116.15-5.824z" fill="url(#paint0_linear)"/><path fill-rule="evenodd" clip-rule="evenodd" d="M79.447 30.126c.81-12.429 11.164-22.273 23.795-22.273 9.41 0 17.551 5.462 21.428 13.382l-11.332-3.037a1.101 1.101 0 01-.716-.603 9.137 9.137 0 00-5.928-4.975 9.178 9.178 0 00-9.546 3.14l7.059 1.89a1.1 1.1 0 01.777 1.348l-1.331 4.961c-.154.588-.76.936-1.347.779l-7.058-1.891c.077.495.19.981.356 1.45a30.358 30.358 0 00-16.157 5.83zM127.037 33.257l-.001.009a30.308 30.308 0 01-16.155 5.829l-.007-.018a30.336 30.336 0 0016.149-5.824l.014.004z" fill="#AF1A1A"/><path fill-rule="evenodd" clip-rule="evenodd" d="M95.603 24.308l.007.017a30.337 30.337 0 00-16.15 5.825l-.013-.005v-.008a30.306 30.306 0 0116.156-5.83z" fill="#1446A0"/><mask id="a" maskUnits="userSpaceOnUse" x="79" y="24" width="49" height="16"><path fill-rule="evenodd" clip-rule="evenodd" d="M95.59 24.387a9.117 9.117 0 006.335 6.023 9.148 9.148 0 007.623-1.342c.268-.189.602-.25.921-.165 2.833.757 16.531 4.428 16.531 4.428a30.274 30.274 0 01-16.149 5.825 9.116 9.116 0 00-6.336-6.023 9.15 9.15 0 00-7.623 1.341c-.268.189-.602.25-.917.165-2.836-.757-16.535-4.428-16.535-4.428a30.274 30.274 0 0116.15-5.824z" fill="red"/></mask><g mask="url(#a)"><g filter="url(#filter0_f)"><circle cx="84.4" cy="18.187" r="10.333" fill="#000"/></g><g filter="url(#filter1_f)"><circle cx="122.427" cy="45.467" fill="#000" r="10.333"/></g></g><path d="M157.655 12.6h17.984v.64h-1.088c-.982 0-1.814.299-2.496.896-.64.597-.982 1.365-1.024 2.304v27.968c0 2.645.17 4.821.512 6.528l.128.896h-.576l-29.376-25.92v21.184c.042.939.384 1.728 1.024 2.368.682.597 1.514.896 2.496.896h1.088V51h-17.92v-.64h1.024c.981 0 1.813-.299 2.496-.896a3.12 3.12 0 001.024-2.368v-28.16c0-2.56-.171-4.672-.512-6.336l-.128-.896.576.064 29.312 25.792V16.504c0-.939-.342-1.707-1.024-2.304-.64-.64-1.451-.96-2.432-.96h-1.088v-.64z" fill="#AF1A1A"/><path d="M229.159 18c0 1.963-.384 3.819-1.152 5.568-1.45 3.37-4.138 5.675-8.064 6.912-1.152.384-2.218.576-3.2.576-3.029 0-5.738-.79-8.128-2.368v-.64c3.2.085 5.782-.96 7.744-3.136 1.707-1.877 2.56-4.33 2.56-7.36 0-3.072-.746-5.44-2.24-7.104-1.45-1.707-3.434-2.56-5.952-2.56h-4.288v37.44c0 1.11.406 2.07 1.216 2.88.811.768 1.771 1.152 2.88 1.152h.832V50h-19.456v-.64h.832c1.11 0 2.048-.384 2.816-1.152.811-.81 1.238-1.77 1.28-2.88V9.552c0-1.067-.405-1.941-1.216-2.624-.81-.725-1.77-1.088-2.88-1.088h-.832V5.2h21.376c5.206 0 9.131 1.11 11.776 3.328 2.731 2.347 4.096 5.504 4.096 9.472zM232.645 50v-.64h.768c.981 0 1.792-.32 2.432-.96a3.12 3.12 0 001.024-2.368v-30.4a3.12 3.12 0 00-1.024-2.368c-.683-.683-1.494-1.024-2.432-1.024h-.768v-.64h17.792v.64h-.768c-.982 0-1.814.32-2.496.96-.683.64-1.024 1.45-1.024 2.432V47.44h7.68c2.645-.043 4.885-.853 6.72-2.432 1.834-1.621 3.178-3.883 4.032-6.784h.704L262.789 50h-30.144zM308.309 12.24h-.896c-.811 0-1.494.256-2.048.768-.555.47-.854 1.088-.896 1.856v21.184c0 4.608-1.408 8.235-4.224 10.88-2.816 2.603-7.019 3.904-12.608 3.904-5.547 0-9.878-1.28-12.992-3.84-3.072-2.56-4.608-6.165-4.608-10.816V14.928c0-.768-.299-1.408-.896-1.92-.555-.512-1.238-.768-2.048-.768h-.896v-.64h16.832v.64h-.896c-.811 0-1.494.256-2.048.768-.555.512-.832 1.152-.832 1.92v20.8c0 3.925.896 6.997 2.688 9.216 1.834 2.219 4.394 3.328 7.68 3.328 3.285 0 5.866-1.045 7.744-3.136 1.92-2.09 2.88-4.992 2.88-8.704V14.928c-.043-.81-.342-1.45-.896-1.92-.555-.512-1.238-.768-2.048-.768h-.832v-.64h11.84v.64zM363.976 49.36h.896V50H347.08v-.64h.896c.811 0 1.387-.277 1.728-.832.384-.555.533-1.13.448-1.728l-2.496-18.304-10.176 16.192c-1.536 2.432-2.304 4.608-2.304 6.528h-.576l-14.784-22.4L317.64 46.8c-.085.597.064 1.173.448 1.728.384.555.96.832 1.728.832h.896V50h-12.16v-.64h.896c1.067 0 1.984-.299 2.752-.896.811-.64 1.28-1.493 1.408-2.56l4.992-35.136h.512l18.112 27.072 16.96-27.072h.576l5.12 35.456c.213.981.704 1.75 1.472 2.304.768.555 1.643.832 2.624.832zM398.608 21.136c0 1.579-.342 2.965-1.025 4.16-1.322 2.304-3.327 3.563-6.015 3.776 2.858.213 5.248 1.237 7.168 3.072 1.92 1.792 2.88 4.096 2.88 6.912 0 5.504-3.307 8.96-9.92 10.368-1.878.384-3.926.576-6.144.576h-18.56v-.64h.704c.981 0 1.792-.32 2.432-.96.682-.64 1.045-1.45 1.088-2.432V15.632c-.043-1.536-.768-2.581-2.176-3.136a3.587 3.587 0 00-1.344-.256h-.704v-.64h17.152c9.642 0 14.464 3.179 14.464 9.536zm-7.36 17.344c0-1.963-.406-3.605-1.216-4.928-1.494-2.56-4.075-3.84-7.744-3.84h-.128v-.576c2.048 0 3.712-.597 4.992-1.792 1.28-1.195 1.92-3.05 1.92-5.568 0-5.12-2.326-7.68-6.976-7.68h-1.792V47.44h2.56c2.474 0 4.48-.725 6.016-2.176 1.578-1.45 2.368-3.712 2.368-6.784zM404.926 49.36h.768c1.024 0 1.899-.32 2.624-.96.725-.683 1.088-1.493 1.088-2.432V15.632c0-.939-.363-1.728-1.088-2.368-.725-.683-1.6-1.024-2.624-1.024h-.768v-.64h18.176v.64h-.768c-.981 0-1.835.32-2.56.96-.725.64-1.109 1.43-1.152 2.368v30.4c.043.981.427 1.792 1.152 2.432.725.64 1.579.96 2.56.96h.768V50h-18.176v-.64zM456.655 11.6h17.984v.64h-1.088c-.982 0-1.814.299-2.496.896-.64.597-.982 1.365-1.024 2.304v27.968c0 2.645.17 4.821.512 6.528l.128.896h-.576l-29.376-25.92v21.184c.042.939.384 1.728 1.024 2.368.682.597 1.514.896 2.496.896h1.088V50h-17.92v-.64h1.024c.981 0 1.813-.299 2.496-.896a3.12 3.12 0 001.024-2.368v-28.16c0-2.56-.171-4.672-.512-6.336l-.128-.896.576.064 29.312 25.792V15.504c0-.939-.342-1.707-1.024-2.304-.64-.64-1.451-.96-2.432-.96h-1.088v-.64zM483.497 45.456c-3.797-3.584-5.696-8.49-5.696-14.72s1.899-11.115 5.696-14.656c3.84-3.541 9.109-5.312 15.808-5.312 2.987 0 5.931.277 8.832.832 2.901.512 5.248 1.216 7.04 2.112v10.176h-.512c-1.877-7.04-6.357-10.56-13.44-10.56-4.437 0-7.829 1.557-10.176 4.672-2.304 3.072-3.456 7.381-3.456 12.928 0 5.504 1.045 9.77 3.136 12.8 2.133 3.03 5.141 4.544 9.024 4.544 2.133 0 4.053-.49 5.76-1.472 1.707-1.024 2.837-2.475 3.392-4.352l.064-7.68c0-.81-.256-1.43-.768-1.856-.469-.47-1.152-.704-2.048-.704h-.896v-.512h16.448v.512h-.768c-1.877 0-2.816.853-2.816 2.56v8.576c-1.493 1.92-4.011 3.648-7.552 5.184-3.541 1.536-7.424 2.304-11.648 2.304-6.443-.043-11.584-1.835-15.424-5.376z" fill="#1446A0"/><defs><filter id="filter0_f" x="54.067" y="-12.147" width="60.667" height="60.667" filterUnits="userSpaceOnUse" color-interpolation-filters="sRGB"><feFlood flood-opacity="0" result="BackgroundImageFix"/><feBlend in="SourceGraphic" in2="BackgroundImageFix" result="shape"/><feGaussianBlur stdDeviation="10" result="effect1_foregroundBlur"/></filter><filter id="filter1_f" x="92.093" y="15.133" width="60.667" height="60.667" filterUnits="userSpaceOnUse" color-interpolation-filters="sRGB"><feFlood flood-opacity="0" result="BackgroundImageFix"/><feBlend in="SourceGraphic" in2="BackgroundImageFix" result="shape"/><feGaussianBlur stdDeviation="10" result="effect1_foregroundBlur"/></filter><linearGradient id="paint0_linear" x1="38.726" y1="11.692" x2="161.28" y2="49.306" gradientUnits="userSpaceOnUse"><stop stop-color="#170F11" stop-opacity=".5"/><stop offset=".529" stop-color="#fff" stop-opacity=".567"/><stop offset="1" stop-color="#170F11" stop-opacity=".5"/></linearGradient></defs></svg>