<svg width="150" height="150" viewBox="0 0 150 150" fill="none" xmlns="http://www.w3.org/2000/svg"><path fill-rule="evenodd" clip-rule="evenodd" d="M133.142 80.487c-1.962 30.071-27.009 53.885-57.568 53.885-22.767 0-42.462-13.211-51.844-32.376l27.418 7.348c.763.205 1.402.74 1.73 1.46 2.672 5.726 7.767 10.274 14.344 12.037 8.786 2.353 17.76-.916 23.094-7.596 0 0-11.742-3.147-17.077-4.575a2.66 2.66 0 01-1.881-3.261c.87-3.237 2.352-8.765 3.221-12.003a2.66 2.66 0 013.258-1.882l17.077 4.575a19.623 19.623 0 00-.861-3.51 73.45 73.45 0 0039.089-14.102z" fill="#1446A0"/><path fill-rule="evenodd" clip-rule="evenodd" d="M57.089 58.844a22.057 22.057 0 0015.328 14.571c6.577 1.763 13.26.371 18.444-3.246a2.663 2.663 0 012.228-.397c6.852 1.83 39.994 10.712 39.994 10.712a73.249 73.249 0 01-39.071 14.09 22.056 22.056 0 00-15.329-14.57c-6.577-1.763-13.26-.372-18.444 3.244a2.65 2.65 0 01-2.218.399c-6.861-1.831-40.003-10.712-40.003-10.712a73.242 73.242 0 0139.07-14.091z" fill="#fff"/><path fill-rule="evenodd" clip-rule="evenodd" d="M57.088 58.844a22.057 22.057 0 0015.329 14.571c6.577 1.763 13.26.371 18.444-3.246a2.663 2.663 0 012.227-.397c6.853 1.83 39.994 10.712 39.994 10.712a73.243 73.243 0 01-39.07 14.09 22.055 22.055 0 00-15.329-14.57c-6.577-1.763-13.26-.372-18.444 3.245a2.65 2.65 0 01-2.219.398 94628.547 94628.547 0 01-40.003-10.712 73.241 73.241 0 0139.071-14.091z" fill="#fff"/><path fill-rule="evenodd" clip-rule="evenodd" d="M57.088 58.844a22.057 22.057 0 0015.329 14.571c6.577 1.763 13.26.371 18.444-3.246a2.663 2.663 0 012.227-.397c6.853 1.83 39.994 10.712 39.994 10.712a73.243 73.243 0 01-39.07 14.09 22.055 22.055 0 00-15.329-14.57c-6.577-1.763-13.26-.372-18.444 3.245a2.65 2.65 0 01-2.219.398 94628.547 94628.547 0 01-40.003-10.712 73.241 73.241 0 0139.071-14.091z" fill="url(#paint0_linear)"/><path fill-rule="evenodd" clip-rule="evenodd" d="M18.017 72.886C19.98 42.816 45.027 19 75.585 19c22.767 0 42.462 13.212 51.844 32.376l-27.418-7.347a2.663 2.663 0 01-1.73-1.46c-2.672-5.726-7.767-10.274-14.344-12.037-8.787-2.353-17.76.915-23.094 7.595 0 0 11.742 3.148 17.077 4.576a2.662 2.662 0 011.881 3.26c-.87 3.239-2.352 8.766-3.222 12.003a2.655 2.655 0 01-3.257 1.884c-5.325-1.428-17.077-4.576-17.077-4.576.187 1.198.462 2.374.861 3.51a73.448 73.448 0 00-39.089 14.102zM133.154 80.46l-.002.022c-11.085 8.128-24.517 13.235-39.085 14.102l-.017-.043a73.396 73.396 0 0039.071-14.09l.033.01z" fill="#AF1A1A"/><path fill-rule="evenodd" clip-rule="evenodd" d="M57.104 58.809l.018.043a73.396 73.396 0 00-39.071 14.09l-.034-.01.002-.02c11.085-8.129 24.517-13.236 39.085-14.103z" fill="#1446A0"/><mask id="a" maskUnits="userSpaceOnUse" x="18" y="59" width="116" height="36"><path fill-rule="evenodd" clip-rule="evenodd" d="M57.071 59a22.057 22.057 0 0015.328 14.571c6.577 1.763 13.26.371 18.444-3.245a2.663 2.663 0 012.228-.398c6.852 1.83 39.994 10.712 39.994 10.712a73.25 73.25 0 01-39.07 14.091 22.055 22.055 0 00-15.33-14.571c-6.576-1.763-13.26-.371-18.443 3.245a2.65 2.65 0 01-2.219.398C51.143 81.973 18 73.091 18 73.091A73.24 73.24 0 0157.071 59z" fill="red"/></mask><g mask="url(#a)"><g filter="url(#filter0_f)"><circle cx="30" cy="44" r="25" fill="#000"/></g><g filter="url(#filter1_f)"><circle cx="122" cy="110" r="25" fill="#000"/></g></g><defs><filter id="filter0_f" x="-15" y="-1" width="90" height="90" filterUnits="userSpaceOnUse" color-interpolation-filters="sRGB"><feFlood flood-opacity="0" result="BackgroundImageFix"/><feBlend in="SourceGraphic" in2="BackgroundImageFix" result="shape"/><feGaussianBlur stdDeviation="10" result="effect1_foregroundBlur"/></filter><filter id="filter1_f" x="77" y="65" width="90" height="90" filterUnits="userSpaceOnUse" color-interpolation-filters="sRGB"><feFlood flood-opacity="0" result="BackgroundImageFix"/><feBlend in="SourceGraphic" in2="BackgroundImageFix" result="shape"/><feGaussianBlur stdDeviation="10" result="effect1_foregroundBlur"/></filter><linearGradient id="paint0_linear" x1="-80.5" y1="28.288" x2="216" y2="119.288" gradientUnits="userSpaceOnUse"><stop stop-color="#170F11" stop-opacity=".5"/><stop offset=".529" stop-color="#fff" stop-opacity=".567"/><stop offset="1" stop-color="#170F11" stop-opacity=".5"/></linearGradient></defs></svg>